# xmcd
#
# Track frame offsets:
#	182
#	12782
#	28135
#	47007
#	60510
#	74137
#	91617
#	104342
#	114910
#	134945
#	150330
#	162302
#	174402
#	189700
#	203337
#	217655
#
# Disc length: 3077 seconds
#
# Revision: 1
# Processed by: cddbd v1.5.1PL2 Copyright (c) Steve Scherf et al.
# Submitted via: audiograbber 1.83.01
#
DISCID=d00c0310
DTITLE=Various Artist - The LBS country collection
DYEAR=1900
DGENRE=
TTITLE0=Coster, Tracy - Road train blues
TTITLE1=Rodger, Graham - Steering wheel drovers
TTITLE2=Leigh, Shaza - Bush girl's dreams
TTITLE3=James, Aussie - Where the mighty gumtrees sway
TTITLE4=Brown, Jeff - Back to those rolling plains
TTITLE5=Tarscha - He's the one
TTITLE6=Constance, Ernie - Piccaninny playing
TTITLE7=Stringer, Craig - Detour
TTITLE8=Letton, Brian - Will we still be Australian
TTITLE9=Mahoney, Warren - A bushman's dreaming
TTITLE10=Cordwell, Corinna - Yodelling cowgirld
TTITLE11=Germon, Graham - One yellow rose
TTITLE12=Maxwell, Tom - The king, the saddle and me
TTITLE13=Salata, Peter - I'm moving out
TTITLE14=Perrett, Dean - King's in grass castles
TTITLE15=Butler, Lindsay - Leave him in the longyard
EXTD=
EXTT0=
EXTT1=
EXTT2=
EXTT3=
EXTT4=
EXTT5=
EXTT6=
EXTT7=
EXTT8=
EXTT9=
EXTT10=
EXTT11=
EXTT12=
EXTT13=
EXTT14=
EXTT15=
PLAYORDER=
